<svg preserveAspectRatio="none" width="100%" height="100%" overflow="visible" style="display: block;" viewBox="0 0 289 40" fill="none" xmlns="http://www.w3.org/2000/svg">
<path id="CW" fill-rule="evenodd" clip-rule="evenodd" d="M26.4989 30.1831H16.8296C16.2382 30.1831 15.6515 29.8122 15.2948 29.2019L10.8169 20.8592C10.5822 20.2441 10.5822 19.6338 10.8169 19.1408L15.2948 10.7981C15.6515 10.1831 16.2382 9.8169 16.8296 9.8169H22.3683C22.9598 9.8169 23.5465 9.44601 23.9032 8.83568L27.9117 1.34742C28.2684 0.732394 27.7944 0 27.203 0H12.3471C11.0516 0 9.99077 0.737089 9.282 1.84038L0.443565 18.277C-0.147855 19.3897 -0.147855 20.723 0.443565 21.8357L9.2867 38.1596C9.8922 39.2864 11.0703 39.9953 12.3518 40H31.3335C32.0423 40 32.3943 39.2629 32.0423 38.6526L27.9164 31.0423C27.7991 30.4272 27.2076 30.1831 26.5036 30.1831H26.4989ZM52.6762 7.23005L48.9024 0.600939C48.5457 -0.00938966 47.7243 -0.00938966 47.3675 0.605634L31.4508 30.061C31.2162 30.6761 31.2162 31.2864 31.4508 31.7793L35.5767 39.5117C35.9334 40.1268 36.7548 40.1268 37.1116 39.5117L52.6762 10.7934C53.2677 9.68075 53.2677 8.34742 52.6762 7.23474V7.23005ZM33.4551 20.7324L38.1724 12.0188C38.4071 11.5258 38.4071 10.7934 38.1724 10.1784L32.751 0.483568C32.3943 -0.131455 31.5729 -0.131455 31.2162 0.483568L26.6162 8.94836C26.3815 9.44131 26.3815 10.1737 26.6162 10.6667L31.9202 20.6056C32.277 21.3427 33.2157 21.3427 33.4551 20.7277V20.7324ZM66.5887 7.23005L62.8149 0.600939C62.4581 -0.00938966 61.6367 -0.00938966 61.28 0.605634L45.3633 30.061C45.1286 30.6761 45.1286 31.2864 45.3633 31.7793L49.6065 39.5117C49.9632 40.1268 50.7846 40.1268 51.1414 39.5117L66.706 10.7934C67.2974 9.69014 67.2974 8.34272 66.5887 7.23474V7.23005ZM199.621 5.56338H201.864C202.456 5.56338 202.808 6.05634 202.686 6.66667L196.555 35.507C196.438 36.1221 195.964 36.4883 195.377 36.4883H192.43C191.838 36.4883 191.369 36.1174 191.251 35.507L185.947 14.277C185.83 13.662 184.887 13.662 184.769 14.277L179.348 35.507C179.231 36.1221 178.757 36.4883 178.17 36.4883H175.222C174.631 36.4883 174.161 36.1174 174.044 35.507L167.914 6.66667C167.797 6.17371 168.149 5.56338 168.735 5.56338H171.209C171.8 5.56338 172.27 6.05634 172.387 6.66667L176.396 27.4085C176.513 28.1455 177.456 28.1455 177.574 27.4085L182.995 6.5446C183.112 5.92958 183.586 5.56338 184.173 5.56338H186.417C187.008 5.56338 187.478 5.93427 187.595 6.5446L193.016 27.4085C193.134 28.0235 194.077 28.0235 194.194 27.4085L198.203 6.66667C198.56 5.92958 199.024 5.56338 199.616 5.56338H199.621ZM87.3775 22.4977C87.3775 24.5869 87.4949 26.1831 87.7343 27.5305C87.969 28.7559 88.3257 29.8592 88.9124 30.6009C89.5038 31.338 90.3253 31.8263 91.2687 32.0751C92.3295 32.3192 93.625 32.446 95.1599 32.446C95.9813 32.446 99.4031 32.446 101.055 32.3239C101.529 32.3239 101.999 32.6948 102.233 33.1831L102.942 35.2723C103.177 35.8873 102.708 36.3756 102.121 36.3756C99.9945 36.3756 95.5166 36.4977 95.0472 36.4977C92.6909 36.4977 90.6867 36.2535 89.0345 35.7606C87.4996 35.2676 86.2041 34.4131 85.2606 33.3099C84.3219 32.2066 83.6084 30.7324 83.2564 29.0141C82.8997 27.2958 82.665 25.0892 82.665 22.507V19.3146C82.665 16.615 82.8997 14.4038 83.3737 12.6854C83.8478 10.9671 84.5519 9.49296 85.5 8.38967C86.4435 7.28638 87.7437 6.5493 89.2738 6.06103C90.8087 5.56807 92.813 5.32394 95.0519 5.32394C95.7607 5.32394 100.004 5.32394 102.125 5.44601C102.717 5.44601 103.069 6.06103 102.947 6.67136L102.238 8.76056C102.003 9.25352 101.529 9.61972 101.06 9.61972C99.2904 9.61972 95.404 9.49765 95.0472 9.49765C93.395 9.49765 92.0995 9.61972 91.1561 9.86854C90.0953 10.1127 89.3865 10.6056 88.7998 11.216C88.2084 11.9531 87.8563 12.9343 87.6216 14.1596C87.3869 15.385 87.3869 17.1033 87.3869 19.1925V22.507L87.3775 22.4977ZM115.672 13.2958C117.441 13.2958 118.976 13.4178 120.272 13.7887C121.567 14.1596 122.628 14.6479 123.337 15.507C124.158 16.3662 124.75 17.4742 125.106 18.8216C125.463 20.169 125.698 21.892 125.698 23.9765V26.3052C125.698 28.3944 125.463 30.108 125.106 31.4601C124.75 32.8075 124.163 33.9108 123.337 34.7746C122.515 35.6338 121.45 36.1221 120.272 36.493C118.976 36.8639 117.441 36.9859 115.672 36.9859C113.902 36.9859 112.367 36.8639 111.072 36.493C109.776 36.1221 108.716 35.6338 108.007 34.7746C107.185 33.9155 106.594 32.8075 106.237 31.4601C105.881 30.1127 105.646 28.3897 105.646 26.3052V23.9765C105.646 21.8873 105.881 20.1737 106.237 18.8216C106.594 17.4742 107.181 16.3709 108.007 15.507C108.828 14.6479 109.894 14.1596 111.072 13.7887C112.367 13.4178 113.902 13.2958 115.672 13.2958ZM121.328 23.9718C121.328 22.4977 121.211 21.2723 121.093 20.2864C120.976 19.4272 120.619 18.6901 120.272 18.1972C119.915 17.7042 119.328 17.338 118.62 17.216C117.911 17.0939 116.967 16.9718 115.789 16.9718C114.611 16.9718 113.663 17.0939 112.959 17.216C112.255 17.338 111.663 17.7089 111.307 18.1972C110.95 18.6901 110.598 19.4225 110.485 20.2864C110.373 21.1502 110.25 22.3756 110.25 23.9718V26.3005C110.25 27.7746 110.368 29 110.485 29.9859C110.603 30.8451 110.959 31.5822 111.307 32.0751C111.663 32.5681 112.245 32.9343 112.959 33.0563C113.672 33.1784 114.611 33.3005 115.789 33.3005C116.967 33.3005 117.915 33.1784 118.62 33.0563C119.324 32.9343 119.915 32.5634 120.272 32.0751C120.628 31.5822 120.981 30.8498 121.093 29.9859C121.206 29.1221 121.328 27.8967 121.328 26.3005V23.9718ZM130.88 36.3662C130.406 36.3662 130.058 35.9953 130.058 35.507V21.0282C130.058 19.6808 130.293 18.5775 130.65 17.7136C131.006 16.8545 131.593 16.1174 132.302 15.5023C133.011 14.8873 133.837 14.5211 134.893 14.277C135.832 14.0329 137.019 13.9061 138.193 13.9061H142.553C143.145 13.9061 143.497 14.5211 143.375 15.1315L142.666 16.8498C142.431 17.3427 141.957 17.7089 141.488 17.7089H138.657C137.714 17.7089 136.888 17.831 136.414 17.9531C135.822 18.0751 135.47 18.446 135.118 18.8122C134.884 19.1831 134.644 19.6714 134.644 20.1596C134.527 20.6526 134.527 21.2629 134.527 22V35.4977C134.527 35.9906 134.17 36.3568 133.705 36.3568H130.875L130.88 36.3662ZM149.984 26.9155C149.509 26.9155 149.162 27.2864 149.162 27.7746C149.162 28.6338 149.279 29.2488 149.279 29.8638C149.397 30.6009 149.636 31.2113 149.988 31.5822C150.345 32.0751 150.932 32.3193 151.523 32.4413C152.232 32.5634 153.058 32.6854 154.236 32.6854C154.828 32.6854 159.427 32.6854 161.427 32.5634C161.901 32.5634 162.488 32.9343 162.605 33.4225L163.197 35.1408C163.431 35.7559 162.962 36.2441 162.375 36.3662C160.019 36.3662 154.71 36.4883 154.236 36.4883C152.232 36.4883 150.697 36.2441 149.402 35.7512C148.106 35.2582 147.158 34.6479 146.454 33.662C145.745 32.8028 145.276 31.6948 145.041 30.4695C144.806 29.2441 144.684 27.77 144.684 26.2958V23.8451C144.684 22.2488 144.802 20.7746 145.041 19.4272C145.276 18.0798 145.75 16.9765 146.454 16.1127C147.163 15.2535 148.106 14.5164 149.402 14.0235C150.697 13.5305 152.349 13.2864 154.353 13.2864C156.24 13.2864 157.775 13.5305 158.953 13.9014C160.132 14.3944 161.08 15.0047 161.784 15.7418C162.493 16.4789 162.962 17.338 163.197 18.4413C163.431 19.4225 163.553 20.5305 163.553 21.5117V22.2488C163.553 23.23 163.436 24.0892 163.436 24.6995C163.319 25.3146 163.201 25.8028 162.845 26.0469C162.61 26.4178 162.253 26.662 161.901 26.662C161.544 26.784 161.08 26.784 160.488 26.784L149.993 26.9061L149.984 26.9155ZM154.349 16.8545C153.288 16.8545 152.345 16.9765 151.636 17.0986C150.927 17.2207 150.458 17.5915 150.106 18.0798C149.754 18.5681 149.514 19.1831 149.397 20.0469C149.279 20.662 149.279 21.5211 149.279 22.3756C149.279 22.8685 149.636 23.2347 150.101 23.2347H158.822C159.296 23.2347 159.643 22.8638 159.643 22.3756V21.7606C159.643 20.7793 159.526 20.0423 159.409 19.3099C159.291 18.6948 158.935 18.2066 158.587 17.8357C158.231 17.4648 157.649 17.2207 156.935 17.0986C156.226 16.9765 155.4 16.8545 154.344 16.8545H154.349ZM209.642 26.9155C209.168 26.9155 208.82 27.2864 208.82 27.7746C208.82 28.6338 208.938 29.2488 209.055 29.8638C209.172 30.6009 209.412 31.2113 209.764 31.5822C210.121 32.0751 210.707 32.3193 211.299 32.4413C212.007 32.5634 212.829 32.6854 214.007 32.6854C214.598 32.6854 219.198 32.6854 221.198 32.5634C221.672 32.5634 222.141 32.9343 222.376 33.4225L222.968 35.1408C223.202 35.7559 222.733 36.2441 222.146 36.3662C219.79 36.3662 214.481 36.4883 214.007 36.4883C212.003 36.4883 210.468 36.2441 209.172 35.7512C207.994 35.2582 206.929 34.6479 206.225 33.662C205.516 32.8028 205.047 31.6948 204.812 30.4695C204.577 29.2441 204.455 27.77 204.455 26.2958V23.8451C204.455 22.2488 204.573 20.7746 204.812 19.4272C205.047 18.0798 205.521 16.9765 206.225 16.1127C206.933 15.2535 207.877 14.5164 209.172 14.0235C210.468 13.5305 212.12 13.2864 214.124 13.2864C216.011 13.2864 217.546 13.5305 218.724 13.9014C219.902 14.3944 220.851 15.0047 221.555 15.7418C222.263 16.4789 222.733 17.338 222.968 18.4413C223.202 19.5446 223.324 20.5305 223.324 21.5117V22.2488C223.324 23.23 223.324 24.0892 223.207 24.6995C223.09 25.3099 222.972 25.8028 222.615 26.0469C222.381 26.4178 222.024 26.662 221.672 26.662C221.315 26.784 220.851 26.784 220.377 26.784L209.647 26.9061L209.642 26.9155ZM213.885 16.8545C212.824 16.8545 211.881 16.9765 211.172 17.0986C210.463 17.2207 209.994 17.5915 209.637 18.0798C209.28 18.5728 209.046 19.1831 208.928 20.0469C208.811 20.662 208.811 21.5211 208.694 22.3756C208.694 22.8685 209.05 23.2347 209.515 23.2347H218.241C218.715 23.2347 219.062 22.8638 219.062 22.3756V21.7606C219.062 20.7793 218.945 20.0423 218.828 19.3099C218.71 18.6948 218.354 18.2066 218.006 17.8357C217.649 17.4648 217.063 17.2207 216.354 17.0986C215.763 16.9765 214.941 16.8545 213.88 16.8545H213.885ZM275.435 26.9155C274.961 26.9155 274.613 27.2864 274.613 27.7746C274.613 28.6338 274.731 29.2488 274.731 29.8638C274.848 30.6009 275.088 31.2113 275.44 31.5822C275.796 32.0751 276.383 32.3193 276.974 32.4413C277.683 32.5634 278.505 32.6854 279.683 32.6854C280.274 32.6854 284.874 32.6854 286.874 32.5634C287.348 32.5634 287.934 32.9343 288.052 33.4225L288.643 35.1408C288.878 35.7559 288.409 36.2441 287.822 36.3662C285.466 36.3662 280.157 36.4883 279.683 36.4883C277.679 36.4883 276.144 36.2441 274.848 35.7512C273.553 35.2582 272.605 34.6479 271.9 33.662C271.192 32.8028 270.722 31.6948 270.488 30.4695C270.253 29.2441 270.131 27.77 270.131 26.2958V23.8451C270.131 22.2488 270.248 20.7746 270.488 19.4272C270.722 18.0798 271.196 16.9765 271.9 16.1127C272.609 15.2535 273.553 14.5164 274.848 14.0235C276.144 13.5305 277.796 13.2864 279.8 13.2864C281.687 13.2864 283.222 13.5305 284.4 13.9014C285.578 14.3944 286.526 15.0047 287.23 15.7418C287.939 16.4789 288.409 17.338 288.643 18.4413C288.878 19.4225 289 20.5305 289 21.5117V22.2488C289 23.23 288.883 24.0892 288.883 24.6995C288.765 25.3146 288.648 25.8028 288.291 26.0469C288.057 26.4178 287.7 26.662 287.348 26.662C286.991 26.784 286.526 26.784 285.935 26.784L275.444 26.9061L275.435 26.9155ZM279.795 16.8545C278.735 16.8545 277.791 16.9765 277.082 17.0986C276.374 17.2207 275.904 17.5915 275.548 18.0798C275.191 18.5728 274.956 19.1831 274.839 20.0469C274.721 20.662 274.721 21.5211 274.721 22.3756C274.721 22.8685 275.078 23.2347 275.543 23.2347H284.269C284.743 23.2347 285.09 22.8638 285.09 22.3756V21.7606C285.09 20.7793 284.973 20.0423 284.855 19.3099C284.738 18.6948 284.381 18.2066 284.034 17.8357C283.677 17.4648 283.09 17.2207 282.382 17.0986C281.56 16.9765 280.73 16.8545 279.791 16.8545H279.795ZM245.371 32.6854C245.371 34.0329 245.014 35.0141 244.428 35.6291C243.841 36.2441 242.658 36.4883 241.128 36.4883H234.88C231.933 36.4883 229.928 35.8732 228.628 34.77C227.333 33.6667 226.741 31.9484 226.741 29.7371V28.7559C226.741 26.3052 227.45 24.5822 228.868 23.6009C230.28 22.6197 232.407 22.0047 235.354 22.0047C237.007 22.0047 238.302 22.1268 239.246 22.3756C239.72 22.4977 240.189 22.6197 240.424 22.8685C240.781 22.9906 241.245 22.7465 241.245 22.2535V22.0094C241.245 21.2723 241.245 20.662 241.128 20.169C241.011 19.6761 240.771 19.1878 240.419 18.8216C240.062 18.4507 239.476 18.2066 238.767 17.9624C238.058 17.8404 237.115 17.7183 235.819 17.7183C234.88 17.7183 230.75 17.7183 228.863 17.8404C228.389 17.8404 227.919 17.4695 227.685 16.9812L227.093 15.2629C226.859 14.6479 227.328 14.1596 227.802 14.1596C230.046 14.1596 234.876 14.0376 235.702 14.0376C239.124 14.0376 241.48 14.6526 243.01 15.8779C244.545 17.1033 245.254 18.9484 245.254 21.277L245.371 32.6901V32.6808V32.6854ZM230.745 29.7371C230.745 30.7183 230.98 31.4554 231.567 32.0657C232.158 32.5587 233.219 32.8028 234.749 32.8028H240.288C240.762 32.8028 241.109 32.4319 241.109 31.9437V28.8732C241.109 28.3803 240.992 27.892 240.992 27.3991C240.874 27.0282 240.635 26.662 240.283 26.4178C239.926 26.1737 239.462 25.9249 238.87 25.9249C238.279 25.8028 237.335 25.8028 236.279 25.8028H235.336C234.392 25.8028 233.683 25.8028 233.092 25.9249C232.501 26.0469 232.031 26.169 231.679 26.4178C231.322 26.662 231.088 27.0329 230.97 27.3991C230.853 27.7653 230.736 28.2582 230.736 28.8732V29.7324L230.745 29.7371ZM252.205 14.8873L257.157 29.7371C257.392 30.3521 258.101 30.3521 258.335 29.7371L263.527 14.8873C263.644 14.3944 264.235 14.0282 264.705 14.0282H267.179C267.77 14.0282 268.122 14.6432 268 15.2535L260.452 35.6291C260.218 36.1221 259.743 36.4883 259.274 36.4883H256.326C255.852 36.4883 255.383 36.1174 255.148 35.6291L247.601 15.2535C247.366 14.6385 247.835 14.0282 248.422 14.0282H251.13C251.604 14.0282 252.074 14.3991 252.191 14.8873H252.201H252.205Z" fill="var(--Dark-Blue-02, #036)"/>
</svg>
