<svg preserveAspectRatio="none" width="100%" height="100%" overflow="visible" style="display: block;" viewBox="0 0 71 40" fill="none" xmlns="http://www.w3.org/2000/svg">
<path id="g42" d="M16.9559 0.268442C7.99263 1.9004 1.58183 8.37923 0.225174 17.1356C-1.29022 27.0146 4.98512 36.6274 14.7738 39.3843C16.3971 39.8658 17.5675 40 19.9338 40C23.6037 40 26.1583 39.3566 29.3753 37.6714C32.3278 36.1182 35.8644 32.5582 37.4074 29.5862C38.3111 27.82 39.6148 24.098 39.6148 23.2415C39.6148 23.1073 36.529 23.0264 32.7786 23.0264H25.917L23.9762 25.5169L22.0079 27.9798L27.3012 28.114L32.567 28.2482L30.4399 30.3893C28.0187 32.8266 25.8387 34.0581 22.7529 34.727C19.5084 35.4237 15.4659 34.727 12.4859 32.9864C9.61384 31.3268 6.90053 27.9798 5.78303 24.686C4.93221 22.1422 4.93221 18.0197 5.78303 15.4759C7.48467 10.4692 11.8467 6.55979 16.8733 5.49028C17.9104 5.2751 19.2671 5.08762 19.9316 5.08762C23.1508 5.08762 27.1933 6.69401 29.6653 8.91611L30.9944 10.1475L32.4569 8.2727C33.2548 7.25433 33.894 6.26365 33.894 6.10386C33.894 5.54141 30.7553 3.21278 28.5753 2.14115C27.4049 1.5787 25.7033 0.90972 24.7995 0.668975C22.7783 0.159787 18.6554 -0.0532623 16.9538 0.266312L16.9559 0.268442ZM37.1428 9.02264L29.8283 18.073L36.8507 18.1539L43.8732 18.2072L43.9261 23.3736L44.0065 28.5145L46.4532 25.5702L48.9273 22.6258V18.2072H52.6248L54.5127 15.8509L56.3752 13.5222L52.6523 13.4413L48.9294 13.3603V0H44.4616L37.147 9.02264H37.1428ZM43.8732 10.9763V13.3859H39.8561L41.7969 10.9763C42.8615 9.66391 43.7652 8.56671 43.8181 8.56671C43.8457 8.56671 43.8711 9.63835 43.8711 10.9763H43.8732ZM55.5751 2.14115V4.28229H59.6451C62.9701 4.28229 63.8484 4.36325 64.6188 4.76378C65.8422 5.37949 66.348 6.42344 65.948 7.57603C65.7892 8.05752 62.8622 11.9137 59.406 16.1704C55.9752 20.4016 53.1814 23.9084 53.2343 23.9617C53.2872 23.9893 57.3043 24.0959 62.1701 24.1768L71 24.3366V19.5451H67.1438C65.0167 19.5451 63.2876 19.4642 63.2876 19.3854C63.2876 19.3065 64.5109 17.6724 66.0009 15.7699C69.6709 11.085 70.1238 10.3883 70.4963 8.6221C71.3217 4.60613 68.9005 0.911851 65.0167 0.268442C64.1384 0.134221 61.6664 0 59.5118 0H55.5751V2.14115Z" fill="var(--Dark-Blue-02, #036)"/>
</svg>
