<svg xmlns="http://www.w3.org/2000/svg" width="224" height="40" viewBox="0 0 224 40" fill="none">
  <path d="M0.00482989 30.8836V30.8017L10.8528 16.2251L11.4951 15.9745H20.6285C21.0149 15.9696 21.237 15.666 21.1501 15.29L10.9735 1.60034C10.732 1.23882 10.5678 1.07493 11.0122 0.756786L20.7106 0.742325C20.9521 0.742325 21.1453 0.896575 21.2805 1.08457L31.5344 14.8658C31.9932 15.3864 32.5003 15.7768 33.191 15.9455H42.2422C42.7928 15.5069 42.4982 15.208 42.1939 14.7453L32.1139 1.20025C32.1236 0.97852 32.2202 0.718224 32.4858 0.742325L42.1843 0.761606L42.6093 0.997801L53.1771 15.208C53.2592 15.5647 53.1288 15.9214 52.7327 15.9745H44.2708C43.4159 16.0757 42.7445 16.4854 42.2036 17.141L31.9497 30.9222C31.7903 31.1343 31.5537 31.2018 31.3074 31.2789L21.947 31.2982C21.2853 31.2066 21.324 30.7342 21.7055 30.3052L31.7662 16.8325C32.0029 16.4613 31.6793 15.9793 31.2446 15.9745H22.8599C22.1547 16.0901 21.4689 16.3938 20.9955 16.9289L10.6209 30.8402C10.3118 31.1873 10.1476 31.2644 9.66944 31.2982C6.74736 31.5103 3.56929 31.1295 0.618226 31.2982C0.275304 31.2644 0.130407 31.2018 0 30.8836H0.00482989ZM114.188 39.9892C116.338 39.8445 118.526 39.5071 120.438 38.4033C123.582 36.5908 124.925 33.2793 125.142 29.7701V8.36321H119.578V12.3351L118.212 10.5131C114.43 6.66647 108.132 7.44253 104.809 11.4675C101.283 15.7383 101.283 22.853 104.809 27.1142C108.334 31.3753 114.84 31.9634 118.501 27.6926L119.578 26.1597C119.516 28.6084 119.95 31.3849 118.419 33.4866C116.376 36.292 109.653 36.3016 108.503 32.6189C108.45 32.4502 108.368 31.7898 108.257 31.7898H102.906C103.06 35.1062 105.34 37.8586 108.383 39.0347C110.049 39.6807 111.793 39.8686 113.527 39.9892C113.729 40.0036 113.985 40.0036 114.188 39.9892ZM118.656 22.7132C116.101 26.9406 109.383 26.5068 107.987 21.4648C106.895 17.5266 108.663 13.3378 113.087 13.0196C118.265 12.6484 121.235 18.4424 118.651 22.7132H118.656ZM128.876 0L128.886 31.1632C128.9 31.2066 128.977 31.2982 129.002 31.2982H134.435V21.2382C134.585 17.2036 137.338 11.9399 142.153 13.2076C144.341 13.7812 144.67 16.0757 144.892 18.0086L144.902 31.168C144.916 31.2114 144.993 31.303 145.017 31.303H150.451V16.5191C150.2 12.8461 148.543 9.33209 144.728 8.31983C140.632 7.23526 137.261 9.05251 135.111 12.4797C134.884 12.8413 134.72 13.2944 134.435 13.5836V0H128.876ZM170.534 0V5.54816H176.093V0H170.534ZM93.526 0L93.4439 5.54816H99.0031V0H93.526ZM63.9864 0.747145V31.2982H69.7533C69.7533 31.2982 69.8789 31.1825 69.8789 31.1728V18.5485L83.6875 18.5581C83.731 18.5726 83.8227 18.6497 83.8227 18.6738V31.2982H89.7152V0.747145H83.8227V13.4149H69.8837V0.747145H63.9912H63.9864ZM219.156 9.56828C214.041 6.54114 206.352 7.89082 203.329 13.2221C200.044 19.0016 201.687 28.1843 208.376 30.7631C213.742 32.831 220.34 31.4476 222.803 25.8657C223.069 25.2583 223.532 24.0677 223.609 23.4363C223.619 23.3495 223.561 23.2676 223.523 23.2676H218.045C217.818 23.6773 217.678 24.1448 217.437 24.5642C216.746 25.7596 215.539 26.5984 214.138 26.7382C211.709 26.984 209.332 26.1935 208.057 24.0388C207.574 23.2242 207.217 22.1444 207.212 21.1948H223.89C224.406 16.7987 223.155 11.935 219.151 9.56828H219.156ZM207.381 17.3868C207.796 15.2225 208.999 13.4149 211.197 12.7882C213.93 12.0122 217.007 12.6629 218.065 15.5406C218.282 16.1239 218.456 16.7602 218.417 17.3868H207.381ZM199.04 15.4008C199.088 15.4008 199.136 15.3093 199.127 15.2369C198.682 11.0481 195.504 8.64761 191.481 8.12219C186.245 7.44253 179.145 9.34655 179.657 15.8588C179.957 19.6572 183.241 21.3346 186.612 21.9179C188.288 22.2119 192.703 22.3951 193.848 23.4748C194.794 24.3666 194.123 25.9573 193.133 26.5598C191.553 27.5239 188.095 27.5191 186.439 26.7285C185.193 26.1356 184.478 24.9595 184.396 23.5953H178.918C179.034 24.0195 179.025 24.4823 179.107 24.9402C180.227 31.1969 187.376 32.2285 192.645 31.3705C196.35 30.7631 199.561 28.7772 199.837 24.7185C200.156 19.956 196.374 18.1388 192.302 17.4109C190.573 17.1024 187.279 17.0831 185.898 16.0998C184.994 15.4635 184.999 13.974 185.767 13.2462C186.902 12.1712 189.969 12.1616 191.394 12.6051C192.679 13.0052 193.577 14.0512 193.698 15.4008H199.049H199.04ZM163.646 8.48372C161.55 9.10553 160.536 10.4311 159.594 12.3062C159.488 12.5135 159.478 12.8123 159.251 12.9136V8.35839H153.818C153.818 8.35839 153.692 8.47408 153.692 8.48372V31.168C153.692 31.168 153.808 31.2933 153.818 31.2933H159.251V20.7321C159.406 18.6545 159.584 16.283 161.323 14.8561C162.738 13.6945 165.4 13.4486 167.177 13.5739C167.336 13.5836 167.472 13.6752 167.631 13.6607V8.03061C166.298 8.00651 164.926 8.10773 163.646 8.48372ZM93.4439 8.36321V31.1728C93.4439 31.1728 93.5598 31.2982 93.5695 31.2982H99.0031V8.36321H93.4439ZM170.534 8.36321V31.2982H175.967C175.967 31.2982 176.093 31.1825 176.093 31.1728V8.36321H170.534Z" fill="var(--Dark-Blue-02, #036)"/>
</svg>
