<svg preserveAspectRatio="none" width="100%" height="100%" overflow="visible" style="display: block;" viewBox="0 0 238 100" fill="none" xmlns="http://www.w3.org/2000/svg">
<path id="matrix" d="M13.6745 53.7971C14.1209 54.1945 12.5363 56.6114 13.8675 56.2019C14.7121 55.941 15.7739 54.9052 16.6145 54.5278C20.6203 52.7211 26.4963 52.5685 28.1614 57.4144C30.6912 55.9891 33.4542 53.8252 36.4304 53.4317C51.1305 51.4805 41.6026 69.9406 40.943 77.2074L40.4201 77.8899H32.5774L36.2092 62.0234C36.1931 58.0287 30.1402 59.5262 28.3705 61.4493L24.5336 77.8939H16.0876C16.9242 73.297 19.6108 66.9737 19.7355 62.4409C19.8602 57.8882 14.4467 59.5663 12.0617 61.3248L8.36556 77.2114L7.84271 77.8939H0L5.33305 55.3147C5.36924 54.9252 5.98862 53.8051 6.23395 53.8051H13.6745V53.7971ZM147.198 41.5599C157.566 50.0231 175.065 42.0136 168.815 28.8129C165.936 22.7305 158.753 20.1128 152.334 20.98C141.692 22.4213 139.033 34.8953 147.198 41.5599ZM168.952 69.6234C177.177 75.9548 188.772 70.6994 189.432 60.4175C189.902 53.0784 183.137 45.8437 175.685 46.2693C163.788 46.9478 159.879 62.6377 168.952 69.6234ZM196.108 99.9272C212.948 101.726 212.642 69.5753 195.766 71.9721C182.192 73.8992 182.232 98.4417 196.108 99.9272ZM73.1786 58.0367C72.153 51.6411 56.7812 53.3032 52.2767 54.3953L50.676 60.2208C53.1294 60.1686 55.3454 58.9039 57.7586 58.663C60.5176 58.386 65.6013 58.382 65.1549 62.2282C59.13 62.7501 48.1543 62.7862 46.0428 69.8483C43.509 78.3155 51.9952 80.1703 58.4584 77.4282C60.216 76.6815 62.3797 74.2364 61.1329 77.8859L69.1245 77.8377C69.8605 72.3655 74.0151 63.264 73.1745 58.0327L73.1786 58.0367ZM59.2346 73.3813C58.1165 73.6182 54.7944 73.7426 54.3601 72.4057C52.6186 67.0419 60.3809 67.3711 63.5421 66.6444L62.6572 71.7794C62.5487 71.9319 59.5724 73.309 59.2346 73.3813ZM150.62 53.7971L143.389 61.0237L138.957 53.7971H131.114C131.022 54.3752 131.195 54.7847 131.428 55.2906C132.88 58.4542 135.687 61.907 137.348 65.0626L137.509 65.9659L125.081 77.8899H134.131L141.567 70.6633L145.191 77.8899H154.039L147.238 66.1024L159.67 53.8011H150.62V53.7971ZM82.6501 47.3734L80.792 53.7489L77.675 53.8493L76.4162 59.4178H79.6337L76.384 72.8674C76.3237 79.8732 86.1492 79.1867 90.6939 77.4844L91.6994 72.6667C89.6844 72.8875 85.0552 74.2686 84.8783 71.2374C84.7053 68.2584 87.3638 63.0552 87.4563 59.7992L94.9411 59.2411L96.1235 53.7971H88.8841L90.4929 47.3734H82.6501ZM172.95 23.8787C176.827 28.7969 186.544 32.0328 190.574 25.8299C195.601 18.0934 185.844 7.87971 177.672 8.93159C169.672 9.95938 168.437 18.1496 172.95 23.8787ZM191.451 47.9676C198.847 57.2418 212.043 51.2035 207.723 39.3518C205.789 34.0362 200.315 30.2101 194.548 31.4025C187.099 32.9442 187.481 42.9892 191.451 47.9676ZM219.624 75.7059C224.269 74.6259 225.633 68.5274 225.227 64.4403C224.68 58.9481 219.491 52.4762 213.459 53.4919C201.799 55.4552 206.67 78.717 219.628 75.7059H219.624ZM99.341 53.7971L93.7104 77.8859H101.754L105.579 62.2322C108.756 60.5941 112.392 61.0839 115.815 61.4091L117.436 53.7971C113.478 53.5321 109.734 55.1701 106.58 57.4064L107.381 53.793H99.337L99.341 53.7971ZM194.7 13.8136C201.441 20.5946 212.328 17.0174 207.462 7.09682C205.535 3.17034 200.307 -0.655773 195.762 0.0949959C188.655 1.26732 190.88 9.97142 194.7 13.8136ZM208.041 31.009C211.592 39.2113 224.422 41.303 223.22 29.909C222.713 25.1153 216.942 18.9887 211.858 19.7595C206.404 20.5906 206.259 26.8979 208.041 31.009ZM223.304 50.2961C224.961 55.2143 232.309 61.923 236.593 56.1136C240.932 50.2239 234.557 37.8061 226.723 39.4401C222.226 40.3796 222.126 46.7952 223.308 50.3002L223.304 50.2961ZM128.142 54.6241L127.695 53.7971H120.456L114.222 77.8859H122.668L128.142 54.6241Z" fill="var(--Dark-Blue-02, #036)"/>
</svg>
