<svg preserveAspectRatio="none" width="100%" height="100%" overflow="visible" style="display: block;" viewBox="0 0 163.406 30" fill="none" xmlns="http://www.w3.org/2000/svg">
<path id="logo" d="M28.5129 16.4662C29.1017 17.061 29.1975 17.9673 28.7484 18.6719L23.9118 26.2413C23.6183 26.7004 23.1392 26.9958 22.5983 27.0517L14.2963 27.9041C14.2345 27.91 14.1746 27.914 14.1127 27.914C13.2963 27.914 12.5896 27.3611 12.392 26.5686L10.5735 19.2747C10.3859 18.5182 10.7053 17.7377 11.37 17.3305L21.3786 11.2103C21.6581 11.0407 21.9775 10.9488 22.3049 10.9488C22.7819 10.9488 23.2311 11.1365 23.5664 11.4738L28.5129 16.4662ZM29.0758 10.6494L23.8459 2.92435C23.7002 2.70876 23.5045 2.52312 23.279 2.39138L21.7918 1.51108C21.7539 1.48912 21.716 1.47714 21.6781 1.47714C21.6082 1.47714 21.5383 1.51507 21.4944 1.57695C21.4525 1.63484 21.4445 1.70071 21.4685 1.77257L23.5864 8.08237C23.6722 8.33788 23.8179 8.57542 24.0076 8.76705L29.1376 13.945C29.1816 13.991 29.2315 14.0129 29.2894 14.0129C29.3532 14.0129 29.4171 13.985 29.461 13.9391C29.5029 13.8951 29.5209 13.8412 29.5149 13.7754L29.3732 11.5337C29.3532 11.2183 29.2494 10.9129 29.0718 10.6494H29.0758ZM2.56502 11.2323L8.08634 15.4142C8.39774 15.6497 8.76903 15.7735 9.15827 15.7735C9.48564 15.7735 9.80502 15.6837 10.0845 15.512L20.2069 9.32198C20.9175 8.88682 21.2289 8.03247 20.9635 7.242L18.9374 1.20966C18.6938 0.485062 18.0191 0 17.2566 0C17.1848 0 17.1109 0.00399228 17.041 0.013973L7.88074 1.13181C7.35576 1.19569 6.89066 1.48713 6.60321 1.93226L2.14583 8.85688C1.64679 9.63338 1.83044 10.6754 2.56702 11.2323H2.56502ZM8.15621 18.7418C8.0584 18.3505 7.82685 17.9992 7.50547 17.7557L0.922195 12.7713C0.882272 12.7414 0.838357 12.7254 0.79045 12.7254C0.694635 12.7254 0.586844 12.7913 0.568878 12.917L0.0179434 16.7716C-0.0459331 17.2207 0.0618585 17.6718 0.323353 18.0431L5.93251 26.0297C6.17005 26.367 6.51937 26.6125 6.9186 26.7223L10.0146 27.5667C10.0346 27.5727 10.0565 27.5747 10.0765 27.5747C10.1424 27.5747 10.2062 27.5428 10.2502 27.4869C10.2801 27.4489 10.312 27.3851 10.2901 27.2972L8.15821 18.7418H8.15621ZM59.6986 6.97252C58.5807 6.97252 57.5427 7.242 56.5826 7.78295C55.6224 8.32391 54.8919 9.04052 54.3888 9.93479C53.8678 8.98463 53.1313 8.25404 52.1811 7.74103C51.2309 7.22803 50.151 6.97252 48.9394 6.97252C47.9892 6.97252 47.1189 7.15816 46.3264 7.53144C45.5339 7.90472 44.8872 8.41573 44.3842 9.06847V7.19609H40.4717V22.6782H44.3842V14.1267C44.3842 12.915 44.6956 11.9888 45.3204 11.3461C45.9452 10.7033 46.7975 10.3819 47.8774 10.3819C48.9573 10.3819 49.7777 10.7033 50.3926 11.3461C51.0074 11.9888 51.3148 12.915 51.3148 14.1267V22.6782H55.2272V14.1267C55.2272 12.915 55.5386 11.9888 56.1634 11.3461C56.7882 10.7033 57.6306 10.3819 58.6925 10.3819C59.7545 10.3819 60.5928 10.7033 61.2076 11.3461C61.8225 11.9888 62.1299 12.915 62.1299 14.1267V22.6782H66.0423V13.5957C66.0423 11.5097 65.4594 9.88289 64.2957 8.71914C63.1319 7.55539 61.5989 6.97252 59.6986 6.97252ZM119.964 10.5915C120.607 11.7553 120.928 13.0927 120.928 14.6018C120.928 15.1607 120.89 15.6637 120.816 16.1109H109.498C109.592 17.2287 109.983 18.105 110.672 18.7378C111.361 19.3706 112.209 19.6879 113.215 19.6879C114.668 19.6879 115.702 19.0631 116.317 17.8156H120.537C120.09 19.3067 119.233 20.5303 117.966 21.4905C116.698 22.4506 115.143 22.9297 113.299 22.9297C111.808 22.9297 110.472 22.5983 109.289 21.9376C108.105 21.2769 107.183 20.3407 106.522 19.129C105.861 17.9174 105.53 16.5201 105.53 14.9371C105.53 13.3542 105.855 11.9289 106.508 10.7173C107.161 9.50562 108.073 8.57542 109.247 7.92268C110.42 7.26994 111.772 6.94457 113.299 6.94457C114.826 6.94457 116.09 7.26196 117.253 7.89474C118.417 8.52751 119.321 9.42777 119.964 10.5915ZM116.876 13.4839C116.858 12.4779 116.495 11.6714 115.786 11.0666C115.077 10.4618 114.211 10.1584 113.187 10.1584C112.219 10.1584 111.403 10.4518 110.742 11.0387C110.081 11.6255 109.676 12.44 109.526 13.4839H116.876ZM123.779 22.6782H127.691V1.99814H123.779V22.6782ZM138.143 18.0112L134.147 7.19609H129.759L135.963 22.2869L132.61 30H136.774L146.359 7.19609H142.195L138.143 18.0112ZM83.6622 10.7452C84.3609 11.9569 84.7102 13.3542 84.7102 14.9371C84.7102 16.5201 84.3509 17.9174 83.6343 19.129C82.9177 20.3407 81.9476 21.2769 80.7279 21.9376C79.5083 22.5983 78.1429 22.9297 76.6338 22.9297C75.1247 22.9297 73.8013 22.5983 72.6096 21.9376C71.4179 21.2769 70.4817 20.3407 69.801 19.129C69.1203 17.9174 68.781 16.5201 68.781 14.9371C68.781 13.3542 69.1303 11.9569 69.829 10.7452C70.5276 9.53357 71.4818 8.59738 72.6934 7.93666C73.9051 7.27593 75.2545 6.94457 76.7456 6.94457C78.2367 6.94457 79.5861 7.27593 80.7978 7.93666C82.0094 8.59738 82.9636 9.53357 83.6622 10.7452ZM80.686 14.9371C80.686 13.466 80.2987 12.3342 79.5262 11.5417C78.7537 10.7492 77.8076 10.354 76.6897 10.354C75.5719 10.354 74.6357 10.7492 73.8811 11.5417C73.1266 12.3342 72.7493 13.466 72.7493 14.9371C72.7493 16.4083 73.1166 17.5401 73.8532 18.3326C74.5898 19.125 75.516 19.5203 76.6338 19.5203C77.3425 19.5203 78.0072 19.3486 78.632 19.0033C79.2568 18.6599 79.7538 18.1409 80.1271 17.4523C80.5003 16.7636 80.686 15.9252 80.686 14.9371ZM163.406 14.9371C163.406 16.5201 163.047 17.9174 162.33 19.129C161.614 20.3407 160.643 21.2769 159.424 21.9376C158.204 22.5983 156.839 22.9297 155.33 22.9297C153.821 22.9297 152.497 22.5983 151.305 21.9376C150.114 21.2769 149.178 20.3407 148.497 19.129C147.816 17.9174 147.477 16.5201 147.477 14.9371C147.477 13.3542 147.826 11.9569 148.525 10.7452C149.223 9.53357 150.178 8.59738 151.389 7.93666C152.601 7.27593 153.95 6.94457 155.441 6.94457C156.933 6.94457 158.282 7.27593 159.494 7.93666C160.705 8.59738 161.659 9.53357 162.358 10.7452C163.057 11.9569 163.406 13.3542 163.406 14.9371ZM159.382 14.9371C159.382 13.466 158.995 12.3342 158.222 11.5417C157.45 10.7492 156.503 10.354 155.386 10.354C154.268 10.354 153.332 10.7492 152.577 11.5417C151.822 12.3342 151.445 13.466 151.445 14.9371C151.445 16.4083 151.812 17.5401 152.549 18.3326C153.286 19.125 154.212 19.5203 155.33 19.5203C156.038 19.5203 156.703 19.3486 157.328 19.0033C157.953 18.6599 158.45 18.1409 158.823 17.4523C159.196 16.7636 159.382 15.9252 159.382 14.9371ZM98.7391 1.99814H102.707V22.6782H98.7391V20.3866C98.254 21.1511 97.5753 21.7659 96.699 22.231C95.8227 22.6961 94.8087 22.9297 93.6529 22.9297C92.3494 22.9297 91.1557 22.5943 90.0758 21.9236C88.9959 21.2529 88.1436 20.3067 87.5188 19.0871C86.894 17.8675 86.5826 16.4662 86.5826 14.8812C86.5826 13.2963 86.894 11.9289 87.5188 10.7173C88.1436 9.50562 88.9959 8.57542 90.0758 7.92268C91.1557 7.26994 92.3574 6.94457 93.6809 6.94457C94.6869 6.94457 95.6471 7.16415 96.5593 7.6013C97.4715 8.03846 98.1981 8.62133 98.7391 9.34793V1.99814ZM98.767 14.9371C98.767 13.987 98.5814 13.1725 98.2081 12.4918C97.8348 11.8112 97.3318 11.2902 96.699 10.9269C96.0663 10.5636 95.3856 10.3819 94.659 10.3819C93.9324 10.3819 93.2617 10.5596 92.6469 10.9129C92.0321 11.2662 91.533 11.7832 91.1518 12.4639C90.7705 13.1446 90.5789 13.949 90.5789 14.8812C90.5789 15.8134 90.7705 16.6279 91.1518 17.3265C91.533 18.0252 92.036 18.5601 92.6608 18.9334C93.2856 19.3067 93.9503 19.4923 94.659 19.4923C95.3676 19.4923 96.0663 19.3107 96.699 18.9474C97.3318 18.5841 97.8348 18.0631 98.2081 17.3824C98.5814 16.7017 98.767 15.8873 98.767 14.9371Z" fill="var(--fill-0, white)"/>
</svg>
