<svg preserveAspectRatio="none" width="100%" height="100%" overflow="visible" style="display: block;" viewBox="0 0 217 40" fill="none" xmlns="http://www.w3.org/2000/svg">
<path id="nvidia" d="M214.198 32.0781V31.4772H214.582C214.793 31.4772 215.076 31.4939 215.076 31.751C215.076 32.028 214.93 32.0781 214.682 32.0781H214.198ZM214.198 32.4987H214.455L215.053 33.547H215.708L215.046 32.4587C215.387 32.432 215.668 32.2717 215.668 31.811C215.668 31.2402 215.273 31.0566 214.609 31.0566H213.647V33.547H214.202V32.4987M217 32.3018C217 30.8396 215.865 29.9917 214.596 29.9917C213.327 29.9917 212.184 30.8396 212.184 32.3018C212.184 33.764 213.32 34.6153 214.596 34.6153C215.871 34.6153 217 33.764 217 32.3018ZM216.305 32.3018C216.305 33.3667 215.521 34.0845 214.596 34.0845V34.0778C213.644 34.0845 212.872 33.3701 212.872 32.3051C212.872 31.2402 213.644 30.5291 214.596 30.5291C215.547 30.5291 216.305 31.2435 216.305 32.3051M128.737 7.558V33.8107H136.158V7.558H128.737ZM70.3931 7.52462V33.8107H77.8769V13.4068L83.7143 13.4268C85.6345 13.4268 86.9603 13.8875 87.8853 14.8756C89.0608 16.1242 89.5384 18.1405 89.5384 21.8261V33.8141H96.7884V19.2889C96.7884 8.92338 90.1796 7.52462 83.711 7.52462H70.3931ZM140.679 7.558V33.8107H152.708C159.117 33.8107 161.211 32.7458 163.471 30.3555C165.071 28.6797 166.103 24.9942 166.103 20.9715C166.103 17.2826 165.228 13.991 163.702 11.9412C160.953 8.27575 156.996 7.558 151.085 7.558H140.676H140.679ZM148.036 13.2732H151.225C155.851 13.2732 158.843 15.3497 158.843 20.7378C158.843 26.1259 155.851 28.2056 151.225 28.2056H148.036V13.2732ZM118.044 7.558L111.853 28.3625L105.922 7.558H97.9172L106.386 33.8074H117.076L125.612 7.55466H118.041L118.044 7.558ZM169.556 33.8107H176.973V7.56134H169.553V33.8107H169.556ZM190.344 7.56802L179.988 33.8007H187.302L188.942 29.1637H201.198L202.747 33.8007H210.688L200.252 7.56802H190.344ZM195.16 12.3552L199.655 24.647H190.528L195.163 12.3552H195.16ZM22.5616 11.9346V8.32248C22.9122 8.29578 23.2662 8.27909 23.6269 8.26573C33.5118 7.95527 39.9971 16.7585 39.9971 16.7585C39.9971 16.7585 32.9908 26.4831 25.4836 26.4831C24.4918 26.4864 23.5033 26.3295 22.5616 26.0157V15.0593C26.4087 15.5233 27.1834 17.2225 29.4977 21.0783L34.6439 16.7418C34.6439 16.7418 30.8869 11.8177 24.5553 11.8177C23.8673 11.8177 23.2094 11.8645 22.5616 11.9346ZM22.5616 0V5.3981C22.9156 5.37139 23.2696 5.34802 23.6269 5.33467C37.3722 4.87398 46.3287 16.6049 46.3287 16.6049C46.3287 16.6049 36.0431 29.1103 25.3267 29.1103C24.3449 29.1103 23.4232 29.0202 22.5616 28.8666V32.2016C23.2996 32.2951 24.0644 32.3519 24.8658 32.3519C34.8376 32.3519 42.0508 27.2609 49.0337 21.2352C50.1925 22.1632 54.9313 24.4166 55.9064 25.4048C49.2675 30.9598 33.7923 35.4398 25.0195 35.4398C24.1979 35.4398 23.3798 35.3931 22.5649 35.313V40H60.4681V0H22.5649H22.5616ZM22.5616 26.0157V28.8633C13.3379 27.2208 10.7765 17.6365 10.7765 17.6365C10.7765 17.6365 15.2047 12.7291 22.5616 11.9346V15.0593H22.5482C18.6878 14.5952 15.6722 18.2006 15.6722 18.2006C15.6722 18.2006 17.362 24.2697 22.5616 26.0157ZM6.17805 17.2192C6.17805 17.2192 11.6448 9.15373 22.5616 8.32248V5.39476C10.4693 6.36622 0 16.6016 0 16.6016C0 16.6016 5.93093 33.7373 22.5616 35.3063V32.1983C10.3591 30.6627 6.17805 17.2192 6.17805 17.2192Z" fill="var(--Dark-Blue-02, #036)"/>
</svg>
