<svg preserveAspectRatio="none" width="100%" height="100%" overflow="visible" style="display: block;" viewBox="0 0 137 50" fill="none" xmlns="http://www.w3.org/2000/svg">
<path id="oracle" d="M7.2538 0.276741C11.1464 -0.16028 15.6816 0.510925 19.6407 0.252769C29.6011 1.7261 29.134 16.0925 19.1015 16.8466C16.0546 17.0753 10.8122 17.0863 7.77638 16.8393C-2.37613 16.0132 -2.44999 1.36653 7.2538 0.276741ZM8.51502 3.21049C1.43337 3.89645 1.94857 13.2527 8.04783 13.7783C11.5619 14.0807 15.5191 13.5552 19.0812 13.758C25.5608 12.3953 24.9588 3.71574 18.2557 3.17177C15.6816 2.96156 11.0762 2.9634 8.51502 3.21049ZM28.532 0.238017V16.6327L28.7425 16.8429H31.817L32.0276 16.6327V3.16808H42.9999C43.0941 3.16808 43.7607 3.4373 43.9159 3.50922C45.7624 4.37773 45.9508 6.91687 44.2353 8.02878C44.1134 8.10807 43.3416 8.46949 43.2788 8.46949H33.5639L34.4004 9.37857L43.2788 16.8411H47.9617L41.6723 11.6761L44.5585 11.2815C50.5635 9.66069 49.7086 1.01064 43.9786 0.238017H28.532ZM118.621 0.238017C118.309 0.238017 116.876 0.75064 116.499 0.911066C111.235 3.14227 109.78 9.89488 113.656 14.1249C117.532 18.355 124.569 16.3229 129.813 16.8503C129.991 16.8669 130.092 16.8116 130.223 16.701C130.336 16.6069 131.732 14.4956 131.841 14.2688C131.922 14.0991 132.02 13.9866 131.972 13.7709H119.183C117.681 13.7709 115.211 11.5489 115.059 10.0037H129.038L130.855 7.07361H115.059C115.608 4.6156 117.905 3.33773 120.296 3.16071C123.363 2.93574 126.685 3.3617 129.78 3.14042L131.693 0.236173H118.623L118.621 0.238017ZM52.6428 16.8429L61.1703 3.86695L65.5726 10.8427H57.0451C57.1078 11.311 58.7033 13.8041 58.9544 13.8889L67.7091 13.9092L69.5557 16.8411H73.4002L62.919 0.765392C61.4547 -0.433187 60.1196 -0.182407 58.9452 1.22638L48.8001 16.8411H52.6446L52.6428 16.8429ZM78.9234 0.238017C77.6898 0.238017 74.9828 1.77957 74.0945 2.6739C68.9869 7.81672 72.5508 16.3285 79.6158 16.8466C83.0505 17.0993 86.7824 16.6383 90.2485 16.8522L92.2114 14.0567L92.0618 13.7727H79.3425C77.8708 13.7727 75.8137 11.7186 75.3539 10.3596C74.0484 6.49829 76.737 3.42993 80.5945 3.16255C83.6728 2.94865 86.98 3.35248 90.0823 3.14595L91.9916 0.238017H78.9215H78.9234ZM0.0151956 26.19C0.0115024 26.6584 -0.125145 27.2024 0.497154 27.1729H136.239L136.66 27.0364L136.721 26.19H0.0151956ZM89.3362 49.6305V35.8174H95.417C96.3496 35.8174 98.4122 36.7652 99.1231 37.4198C101.594 39.7008 101.62 45.5148 99.2672 47.8917C98.5396 48.6274 96.4142 49.6287 95.417 49.6287H89.3362V49.6305ZM92.4108 47.2592H94.4384C94.7283 47.2592 95.7513 46.9383 96.0523 46.7779C98.3531 45.5461 98.3476 40.0161 96.1446 38.7198C95.827 38.5335 94.7578 38.1906 94.4384 38.1906H92.4108V47.2592ZM64.9854 35.5795C70.6913 34.9618 73.4501 39.2379 72.5471 44.5227C71.26 52.0554 60.1935 51.7714 59.4401 43.9622C59.0541 39.9552 60.548 36.0608 64.9854 35.5795ZM65.399 37.8089C61.5987 38.3565 61.7501 46.9273 65.1442 47.6169C69.1199 48.4246 69.7772 44.1466 69.3285 41.2073C68.9906 38.9853 67.8586 37.4548 65.3971 37.8089H65.399ZM93.6702 0.238017V15.5171C93.6702 16.0021 94.708 16.9351 95.2785 16.8429H110.347L112.262 13.7727H97.0254V0.238017H93.6702ZM75.0086 35.8174L74.7981 36.0276V45.0962C74.7981 50.4529 83.9313 51.6202 86.1749 47.2426C86.3522 46.8978 86.8194 45.6937 86.8194 45.3747V35.8174H83.9535L83.7429 36.0276V45.0962C83.7429 45.2124 83.4696 46.1067 83.3939 46.2819C82.6313 48.0558 79.566 48.183 78.495 46.706C78.2087 46.3114 77.8727 45.2751 77.8727 44.8159V35.8155H75.0068L75.0086 35.8174ZM38.9725 36.2636C35.4123 38.2699 35.2905 45.5148 37.8941 48.3084C40.7933 51.4192 48.0744 50.0288 47.6829 45.0261H44.6785C44.3867 45.4005 44.4329 45.891 44.2131 46.3759C43.5632 47.8179 41.4451 48.1978 40.4147 46.9088C39.0409 45.1884 39.0409 40.2577 40.4147 38.5372C41.3768 37.3331 43.4191 37.5839 44.1264 38.8784C44.4163 39.4094 44.3646 39.9479 44.6785 40.4199H47.6829C48.0245 35.9225 42.2558 34.4123 38.9744 36.2618L38.9725 36.2636ZM49.3596 35.8174V49.6305H58.3063V47.2592H52.436V35.8174H49.3614H49.3596ZM135.883 3.02978L135.346 3.00581L134.766 2.19262V3.02978H134.206V0.936881C134.794 0.960853 135.89 0.695321 135.874 1.56567C135.868 1.81645 135.615 2.0156 135.612 2.26269C135.608 2.55035 135.929 2.72922 135.885 3.02978H135.883ZM135.324 1.35546H134.766V1.7722C135.023 1.80539 135.176 1.78142 135.324 1.56199V1.35546ZM136.395 3.40042C134.747 5.06184 131.797 2.62227 133.505 0.726669C135.209 -1.16709 138.313 1.4661 136.395 3.40042ZM134.206 0.936881C134.138 0.979292 133.977 0.942413 133.863 1.07702C132.79 2.33461 134.439 4.27999 135.883 3.02978C137.142 1.94 136.149 0.357875 134.552 0.660286C134.258 0.715605 134.271 0.896314 134.206 0.936881Z" fill="var(--Dark-Blue-02, #036)"/>
</svg>
