<svg xmlns="http://www.w3.org/2000/svg" width="30" height="30" viewBox="121 0 30 30" fill="none">
  <path d="M129.7 0H142.3C147.1 0 151 3.9 151 8.7V21.3C151 23.6074 150.083 25.8203 148.452 27.4518C146.82 29.0834 144.607 30 142.3 30H129.7C124.9 30 121 26.1 121 21.3V8.7C121 6.39262 121.917 4.17974 123.548 2.54817C125.18 0.916605 127.393 0 129.7 0ZM129.4 3C127.968 3 126.594 3.56893 125.582 4.58162C124.569 5.59432 124 6.96783 124 8.4V21.6C124 24.585 126.415 27 129.4 27H142.6C144.032 27 145.406 26.4311 146.418 25.4184C147.431 24.4057 148 23.0322 148 21.6V8.4C148 5.415 145.585 3 142.6 3H129.4ZM143.875 5.25C144.372 5.25 144.849 5.44754 145.201 5.79917C145.552 6.15081 145.75 6.62772 145.75 7.125C145.75 7.62228 145.552 8.09919 145.201 8.45082C144.849 8.80246 144.372 9 143.875 9C143.378 9 142.901 8.80246 142.549 8.45082C142.198 8.09919 142 7.62228 142 7.125C142 6.62772 142.198 6.15081 142.549 5.79917C142.901 5.44754 143.378 5.25 143.875 5.25ZM136 7.5C137.989 7.5 139.897 8.29018 141.303 9.6967C142.71 11.1032 143.5 13.0109 143.5 15C143.5 16.9891 142.71 18.8968 141.303 20.3033C139.897 21.7098 137.989 22.5 136 22.5C134.011 22.5 132.103 21.7098 130.697 20.3033C129.29 18.8968 128.5 16.9891 128.5 15C128.5 13.0109 129.29 11.1032 130.697 9.6967C132.103 8.29018 134.011 7.5 136 7.5ZM136 10.5C134.807 10.5 133.662 10.9741 132.818 11.818C131.974 12.6619 131.5 13.8065 131.5 15C131.5 16.1935 131.974 17.3381 132.818 18.182C133.662 19.0259 134.807 19.5 136 19.5C137.193 19.5 138.338 19.0259 139.182 18.182C140.026 17.3381 140.5 16.1935 140.5 15C140.5 13.8065 140.026 12.6619 139.182 11.818C138.338 10.9741 137.193 10.5 136 10.5Z" fill="white"/>
</svg>